# xmcd
#
# Track frame offsets: 
#        150
#        14667
#        24782
#        35727
#        45571
#        54208
#        62389
#        71398
#        82388
#        94798
#        104592
#
# Disc length: 1548 seconds
#
# Revision: 0
# Processed by: cddbd v1.5.2PL0 Copyright (c) Steve Scherf et al.
# Submitted via: ExactAudioCopy v0.99pb4
#
DISCID=8a060a0b
DTITLE=Kenni Huskey - A Tribute tTo My Second Dad... Buck Owens
DYEAR=2006
DGENRE=Country
TTITLE0=Buck's Song To Kenni
TTITLE1=Within My Loving Arms
TTITLE2=Only You
TTITLE3=Number One Heel
TTITLE4=You'll Never Miss The Water
TTITLE5=I'll Be Swinging Too
TTITLE6=Roll Out The Red Carpet
TTITLE7=Peace Of Mind
TTITLE8=In The Arms Of Love
TTITLE9=Hide And Watch Me Go
TTITLE10=Living Tornado
EXTD=
EXTT0=
EXTT1=
EXTT2=
EXTT3=
EXTT4=
EXTT5=
EXTT6=
EXTT7=
EXTT8=
EXTT9=
EXTT10=
PLAYORDER=
